<svg width="478" height="303" viewBox="0 0 478 303" fill="none" xmlns="http://www.w3.org/2000/svg">
<rect width="88" height="303" rx="8" fill="#4ECCA3"/>
<path d="M107.605 188V133.455H120.46V188H107.605ZM114.068 125.713C112.032 125.713 110.28 125.038 108.812 123.689C107.345 122.316 106.611 120.67 106.611 118.753C106.611 116.812 107.345 115.166 108.812 113.817C110.28 112.444 112.032 111.757 114.068 111.757C116.128 111.757 117.88 112.444 119.324 113.817C120.792 115.166 121.526 116.812 121.526 118.753C121.526 120.67 120.792 122.316 119.324 123.689C117.88 125.038 116.128 125.713 114.068 125.713ZM146.534 156.04V188H133.679V133.455H145.966V142.723H146.605C147.86 139.669 149.861 137.242 152.607 135.443C155.377 133.644 158.798 132.744 162.87 132.744C166.634 132.744 169.913 133.549 172.706 135.159C175.524 136.769 177.702 139.101 179.24 142.155C180.803 145.209 181.572 148.914 181.549 153.27V188H168.694V155.259C168.694 151.613 167.747 148.76 165.853 146.7C163.982 144.641 161.39 143.611 158.076 143.611C155.827 143.611 153.826 144.108 152.074 145.102C150.346 146.073 148.985 147.482 147.99 149.328C147.02 151.175 146.534 153.412 146.534 156.04ZM187.399 126.317V115.273H245.425V126.317H222.946V188H209.878V126.317H187.399ZM283.386 165.06V133.455H296.241V188H283.777V178.305H283.209C281.978 181.359 279.954 183.857 277.136 185.798C274.343 187.74 270.898 188.71 266.803 188.71C263.228 188.71 260.067 187.917 257.321 186.331C254.598 184.721 252.468 182.389 250.929 179.335C249.39 176.258 248.621 172.541 248.621 168.185V133.455H261.476V166.196C261.476 169.652 262.423 172.399 264.317 174.435C266.211 176.471 268.696 177.489 271.774 177.489C273.668 177.489 275.503 177.027 277.278 176.104C279.054 175.18 280.51 173.807 281.646 171.984C282.806 170.138 283.386 167.83 283.386 165.06ZM322.316 156.04V188H309.461V133.455H321.748V142.723H322.387C323.641 139.669 325.642 137.242 328.388 135.443C331.158 133.644 334.579 132.744 338.651 132.744C342.415 132.744 345.694 133.549 348.488 135.159C351.305 136.769 353.483 139.101 355.022 142.155C356.584 145.209 357.354 148.914 357.33 153.27V188H344.475V155.259C344.475 151.613 343.528 148.76 341.634 146.7C339.764 144.641 337.171 143.611 333.857 143.611C331.608 143.611 329.607 144.108 327.855 145.102C326.127 146.073 324.766 147.482 323.772 149.328C322.801 151.175 322.316 153.412 322.316 156.04ZM394.546 189.065C389.077 189.065 384.354 187.929 380.377 185.656C376.423 183.36 373.381 180.116 371.25 175.926C369.12 171.712 368.054 166.752 368.054 161.047C368.054 155.436 369.12 150.512 371.25 146.274C373.405 142.013 376.411 138.698 380.27 136.331C384.129 133.94 388.663 132.744 393.871 132.744C397.233 132.744 400.405 133.289 403.388 134.378C406.395 135.443 409.046 137.1 411.343 139.349C413.663 141.598 415.486 144.463 416.811 147.943C418.137 151.4 418.8 155.519 418.8 160.301V164.243H374.091V155.578H406.478C406.454 153.116 405.921 150.926 404.88 149.009C403.838 147.067 402.382 145.54 400.512 144.428C398.665 143.315 396.511 142.759 394.049 142.759C391.421 142.759 389.113 143.398 387.124 144.676C385.135 145.931 383.585 147.588 382.472 149.648C381.383 151.684 380.827 153.921 380.803 156.359V163.923C380.803 167.096 381.383 169.818 382.543 172.091C383.703 174.34 385.325 176.068 387.408 177.276C389.491 178.459 391.93 179.051 394.723 179.051C396.594 179.051 398.286 178.791 399.801 178.27C401.317 177.725 402.631 176.932 403.743 175.891C404.856 174.849 405.696 173.559 406.265 172.02L418.267 173.369C417.51 176.542 416.066 179.312 413.935 181.679C411.828 184.023 409.129 185.846 405.838 187.148C402.548 188.426 398.783 189.065 394.546 189.065ZM472.786 147.872L461.067 149.151C460.736 147.967 460.156 146.854 459.327 145.812C458.522 144.771 457.433 143.93 456.06 143.291C454.687 142.652 453.006 142.332 451.018 142.332C448.343 142.332 446.094 142.912 444.271 144.072C442.471 145.232 441.584 146.736 441.607 148.582C441.584 150.169 442.164 151.459 443.347 152.453C444.555 153.447 446.543 154.264 449.313 154.903L458.617 156.892C463.778 158.005 467.613 159.768 470.123 162.183C472.656 164.598 473.934 167.759 473.958 171.665C473.934 175.098 472.928 178.128 470.94 180.756C468.975 183.36 466.24 185.396 462.737 186.864C459.233 188.331 455.208 189.065 450.663 189.065C443.987 189.065 438.612 187.669 434.54 184.875C430.469 182.058 428.042 178.14 427.261 173.121L439.796 171.913C440.364 174.375 441.572 176.234 443.418 177.489C445.265 178.743 447.668 179.371 450.627 179.371C453.681 179.371 456.131 178.743 457.978 177.489C459.848 176.234 460.783 174.683 460.783 172.837C460.783 171.274 460.18 169.984 458.972 168.966C457.789 167.948 455.942 167.167 453.433 166.622L444.129 164.669C438.897 163.58 435.026 161.745 432.516 159.165C430.007 156.561 428.764 153.27 428.788 149.293C428.764 145.931 429.675 143.019 431.522 140.557C433.392 138.071 435.985 136.153 439.299 134.804C442.637 133.431 446.484 132.744 450.84 132.744C457.232 132.744 462.263 134.106 465.933 136.828C469.626 139.551 471.91 143.232 472.786 147.872Z" fill="#393E46"/>
</svg>
